<svg width="145" height="57" viewBox="0 0 145 57" fill="none" xmlns="http://www.w3.org/2000/svg">
<path d="M2 9.73972C4.06069 11.0994 6.06985 12.0422 8.27316 12.6592C17.1236 15.1376 26.1183 16.2774 35.09 16.5916C45.3474 16.9508 55.6914 17.007 65.9422 16.1745C68.9571 15.9297 73.5828 16.1784 76.0856 12.7486C77.9813 10.1508 74.1262 6.26954 72.9491 5.569C66.8193 1.92116 57.2599 0.0426407 51.1948 5.03276C48.4339 7.30425 47.9377 12.4081 49.5073 16.5022C51.7218 22.2787 56.0345 27.0359 59.4122 30.7125C65.1749 36.9849 71.5055 40.7052 78.195 43.4332C91.0406 48.6715 104.859 49.842 118.072 49.9573C123.49 50.0047 128.94 50.154 134.342 49.3615C136.959 48.9776 138.863 48.5179 141 46.2037" stroke="#55AFB5" stroke-width="3" stroke-linecap="round"/>
<path d="M132.728 43.4439C133.799 43.4612 134.664 43.747 135.691 44.0133C137.016 44.3567 138.481 44.4059 139.845 44.3563C140.021 44.3499 141.117 43.8756 141.319 44.1446C141.612 44.5357 141.399 45.7072 141.399 46.1592C141.399 47.4512 141.437 48.7419 141.691 50.013C141.892 51.0165 141.912 52.1186 142.202 53.0932C142.357 53.6117 142.582 54.0615 142.582 54.6114" stroke="#55AFB5" stroke-width="3" stroke-linecap="round"/>
</svg>
