<?xml version="1.0" standalone="no"?>
<!DOCTYPE svg PUBLIC "-//W3C//DTD SVG 20010904//EN"
 "http://www.w3.org/TR/2001/REC-SVG-20010904/DTD/svg10.dtd">
<svg version="1.0" xmlns="http://www.w3.org/2000/svg"
 width="624.000000pt" height="624.000000pt" viewBox="0 0 624.000000 624.000000"
 preserveAspectRatio="xMidYMid meet">
<metadata>
Created by potrace 1.14, written by Peter Selinger 2001-2017
</metadata>
<g transform="translate(0.000000,624.000000) scale(0.100000,-0.100000)"
fill="#000000" stroke="none">
<path d="M25 5813 l-25 -28 2 -2676 c3 -2251 5 -2679 17 -2692 12 -16 241 -17
3102 -17 l3088 0 15 22 c14 20 16 291 16 2686 0 2318 -2 2667 -15 2691 -17 34
-32 41 -92 41 -42 0 -87 -21 -118 -55 -5 -7 -30 -27 -55 -46 -25 -18 -50 -38
-57 -44 -6 -5 -26 -21 -44 -35 -18 -14 -37 -29 -43 -35 -6 -5 -29 -23 -51 -40
-22 -16 -46 -35 -53 -42 -8 -7 -30 -26 -50 -41 -21 -15 -42 -31 -48 -37 -6 -5
-29 -23 -50 -40 -21 -16 -46 -38 -56 -47 -10 -10 -18 -15 -18 -10 0 4 -6 0
-13 -8 -7 -8 -43 -40 -82 -70 -38 -30 -71 -58 -73 -62 -2 -5 -10 -8 -17 -8 -7
0 -15 -4 -17 -8 -1 -4 -48 -44 -103 -87 -55 -44 -102 -82 -105 -85 -3 -3 -43
-35 -90 -70 -47 -36 -87 -68 -90 -71 -3 -4 -54 -45 -115 -93 -60 -47 -120 -95
-131 -106 -12 -11 -27 -20 -33 -20 -6 0 -11 -4 -11 -8 0 -5 -18 -21 -41 -38
-22 -16 -46 -34 -52 -39 -25 -22 -167 -135 -276 -221 -63 -49 -121 -96 -130
-104 -9 -8 -32 -26 -51 -40 -19 -13 -37 -27 -40 -30 -3 -3 -27 -24 -55 -45
-27 -22 -51 -43 -53 -47 -2 -5 -8 -8 -13 -8 -5 0 -17 -8 -27 -17 -28 -27 -72
-63 -76 -63 -2 0 -15 -9 -28 -20 -42 -36 -139 -113 -308 -246 -140 -111 -157
-125 -174 -139 -6 -6 -31 -26 -56 -45 -25 -19 -54 -43 -64 -52 -26 -24 -46
-23 -76 5 -14 12 -41 34 -62 49 -20 15 -42 33 -50 40 -7 7 -34 29 -58 48 -25
19 -46 38 -48 42 -2 4 -10 8 -17 8 -7 0 -15 4 -17 8 -1 4 -21 21 -43 37 -22
17 -44 36 -48 42 -4 7 -15 13 -23 13 -8 0 -12 5 -9 10 3 6 0 10 -7 10 -7 0
-27 14 -45 30 -18 17 -36 30 -42 30 -5 0 -11 4 -13 8 -2 7 -48 44 -188 155 -8
7 -35 28 -60 47 -25 19 -52 40 -60 47 -146 115 -186 149 -192 157 -4 6 -8 8
-8 4 0 -5 -8 0 -19 10 -10 9 -31 27 -47 40 -16 12 -40 31 -54 41 -135 105
-236 188 -243 198 -4 7 -13 13 -19 13 -6 0 -29 16 -52 36 -22 19 -46 38 -51
42 -6 4 -65 51 -133 105 -67 54 -122 96 -122 93 0 -2 -15 10 -34 27 -18 18
-46 41 -61 52 -62 44 -240 188 -243 196 -2 5 -8 9 -13 9 -10 0 -36 20 -82 63
-17 15 -33 27 -37 27 -3 0 -15 8 -26 18 -10 9 -53 44 -94 77 -41 32 -76 63
-78 67 -2 4 -10 8 -18 8 -8 0 -14 3 -14 8 0 4 -25 25 -55 47 -30 22 -55 43
-55 47 0 4 -5 8 -11 8 -10 0 -23 10 -80 63 -10 9 -23 17 -29 17 -5 0 -13 6
-17 13 -4 7 -18 19 -29 27 -12 8 -69 52 -127 98 -100 78 -108 82 -156 82 -42
0 -54 -5 -76 -27z m236 -284 c31 -24 71 -56 90 -71 19 -14 45 -36 58 -47 13
-12 27 -21 30 -21 3 0 23 -16 44 -36 20 -19 37 -32 37 -27 0 4 6 1 13 -7 12
-15 95 -82 222 -180 39 -30 75 -59 82 -64 6 -6 26 -22 44 -36 18 -14 58 -45
89 -70 32 -25 75 -58 96 -75 21 -16 46 -38 56 -47 10 -10 20 -18 23 -18 4 0
130 -98 190 -148 11 -9 40 -33 65 -52 25 -19 47 -37 50 -40 3 -3 23 -18 45
-35 22 -16 45 -34 52 -40 6 -5 26 -21 44 -35 18 -14 38 -31 45 -37 7 -7 15
-13 19 -13 3 0 16 -10 29 -22 13 -13 36 -32 51 -43 16 -11 65 -49 110 -85 81
-64 100 -80 219 -173 33 -26 68 -54 78 -62 9 -7 19 -11 22 -8 3 4 6 0 6 -8 0
-8 12 -22 28 -31 15 -9 37 -25 49 -35 35 -30 56 -46 98 -77 22 -17 42 -33 45
-36 3 -3 34 -28 70 -55 36 -28 67 -52 70 -55 3 -3 21 -17 40 -31 19 -15 46
-36 60 -48 34 -28 30 -25 150 -119 58 -46 116 -92 130 -103 14 -11 38 -30 55
-42 16 -12 43 -34 58 -50 24 -22 27 -30 17 -42 -7 -8 -9 -15 -4 -15 5 0 8 -35
6 -77 -1 -43 -2 -85 -2 -93 1 -63 -1 -94 -4 -97 -2 -3 -1 -17 4 -32 4 -16 4
-34 0 -41 -4 -7 -4 -24 0 -39 4 -14 3 -38 -1 -53 -4 -16 -5 -28 -1 -28 4 0 6
-19 4 -42 -1 -24 -4 -230 -5 -458 -2 -228 -6 -414 -10 -413 -9 2 -111 90 -163
140 -19 18 -34 30 -34 27 0 -3 -6 1 -14 8 -28 27 -64 54 -156 120 -52 37 -101
73 -107 78 -7 6 -13 7 -13 3 0 -4 -4 -3 -8 2 -4 6 -24 19 -44 30 -21 11 -38
23 -38 27 0 5 -9 8 -19 8 -11 0 -21 3 -23 8 -3 6 -73 44 -88 47 -3 0 -15 6
-26 13 -12 6 -24 8 -28 5 -3 -3 -6 -2 -6 4 0 6 -10 13 -22 16 -13 2 -60 18
-105 35 -46 17 -83 29 -83 26 0 -3 -8 0 -18 5 -11 6 -32 12 -48 15 -16 3 -40
8 -54 11 -126 25 -177 29 -375 29 -161 0 -226 -4 -290 -18 -11 -2 -40 -7 -65
-12 -49 -9 -56 -10 -67 -14 -5 -2 -12 -4 -18 -5 -32 -5 -162 -49 -212 -71 -32
-14 -59 -26 -60 -25 -6 2 -78 -35 -81 -41 -2 -5 -10 -8 -18 -8 -8 0 -51 -23
-95 -50 -44 -28 -85 -50 -90 -50 -5 0 -9 -4 -9 -8 0 -5 -10 -14 -22 -19 -37
-17 -207 -157 -280 -230 -38 -37 -68 -60 -69 -52 -1 19 -1 3590 0 3608 1 9 5
10 14 4 6 -5 37 -29 68 -54z m5802 -1749 c0 -990 -2 -1802 -5 -1805 -3 -3 -20
13 -39 37 -49 60 -187 198 -199 198 -6 0 -10 6 -10 14 0 8 -9 18 -20 21 -11 4
-31 16 -43 28 -76 75 -345 211 -481 244 -11 2 -37 8 -56 13 -19 5 -46 11 -60
15 -14 3 -36 8 -50 9 -14 2 -52 8 -85 12 -72 10 -418 11 -495 2 -52 -7 -85
-12 -140 -23 -14 -3 -38 -8 -55 -11 -16 -4 -37 -8 -45 -9 -8 -1 -22 -5 -30 -8
-31 -12 -116 -36 -135 -39 -11 -2 -22 -5 -25 -8 -3 -3 -43 -21 -90 -40 -118
-47 -360 -178 -390 -210 -3 -3 -27 -20 -55 -39 -62 -43 -208 -160 -275 -221
-9 -8 -28 -25 -42 -38 l-25 -23 3 613 c1 337 3 661 3 719 l1 106 73 56 c40 31
86 68 101 82 15 14 30 25 34 25 4 0 21 13 37 28 17 15 50 43 75 62 25 19 50
39 56 45 6 5 26 21 44 35 18 14 42 33 54 42 33 27 38 32 80 63 22 17 56 45 75
62 20 18 39 33 44 33 4 0 15 8 25 18 9 9 58 49 107 87 49 39 99 77 110 87 114
94 197 158 204 158 5 0 12 7 15 16 3 8 10 12 16 9 5 -3 10 -2 10 3 0 9 57 56
330 270 52 42 101 82 108 90 6 9 12 13 12 9 0 -4 8 1 18 11 10 9 33 28 52 42
18 14 38 30 44 35 6 6 31 26 56 45 25 19 47 37 50 40 3 3 34 28 70 55 36 28
70 55 76 60 27 24 62 52 99 79 22 17 42 33 45 36 3 3 33 28 68 54 35 27 74 58
87 70 13 11 36 30 51 41 15 11 57 44 93 73 131 105 184 147 234 185 16 12 34
27 40 32 7 6 35 28 62 50 28 22 56 46 64 53 7 7 16 11 19 8 3 -3 5 -816 5
-1806z m-4336 -1384 c40 -4 83 -10 97 -15 13 -6 26 -7 29 -5 3 3 25 0 48 -6
24 -7 53 -14 64 -16 32 -6 148 -44 182 -60 17 -7 34 -14 37 -14 26 0 295 -149
317 -176 6 -8 16 -14 21 -14 6 0 39 -22 74 -50 35 -27 68 -50 74 -50 6 0 8 -4
5 -10 -3 -5 -1 -10 5 -10 6 0 21 -9 33 -21 12 -11 35 -30 50 -42 15 -12 43
-35 61 -52 18 -16 63 -57 101 -90 84 -74 105 -96 106 -109 0 -10 0 -901 -1
-1048 l0 -58 -1425 0 c-1133 0 -1425 3 -1426 13 0 6 -1 258 -1 559 -1 602 -6
553 60 632 43 51 214 219 261 256 24 19 49 41 56 48 8 6 18 12 23 12 5 0 15 7
22 15 16 20 188 123 265 159 79 37 205 86 205 79 0 -3 6 -1 13 5 26 21 250 65
339 66 27 1 48 3 48 6 0 6 158 3 257 -4z m3101 0 c7 -4 12 -2 12 4 0 6 4 9 9
6 5 -3 40 -8 77 -11 86 -8 122 -12 154 -19 14 -3 53 -11 88 -17 34 -7 62 -15
62 -19 0 -3 11 -7 23 -8 13 -1 37 -8 53 -17 16 -8 35 -15 41 -15 20 0 152 -70
229 -121 137 -91 293 -249 419 -423 11 -15 28 -37 37 -49 10 -12 21 -26 25
-32 5 -5 8 -260 7 -565 l-1 -555 -1426 -3 -1427 -2 0 52 c-1 74 -1 432 0 766
l0 283 28 27 c36 34 136 126 188 172 21 20 77 66 124 103 47 37 90 71 95 76
29 23 205 132 211 131 4 -1 10 2 13 8 9 13 185 96 266 124 39 14 86 30 105 37
19 7 47 14 63 16 15 2 31 6 36 9 4 3 21 7 37 10 16 3 53 10 82 16 29 5 56 9
60 9 4 -1 9 0 12 1 3 1 34 3 69 6 35 2 65 5 67 6 6 6 151 1 162 -6z"/>
<path d="M616 4364 c-17 -16 -21 -51 -8 -71 9 -15 80 -63 92 -63 4 0 10 -3 12
-8 4 -10 166 -112 178 -112 6 0 10 -3 10 -8 0 -4 26 -23 58 -41 31 -19 59 -37
62 -40 8 -10 43 -31 78 -46 17 -9 32 -20 32 -25 0 -5 11 -12 25 -16 14 -3 25
-10 25 -15 0 -5 7 -9 15 -9 8 0 15 -4 15 -8 0 -5 12 -15 28 -23 15 -7 59 -35
99 -61 40 -27 75 -48 78 -48 3 0 11 -5 18 -10 18 -16 197 -130 203 -130 2 0
14 -9 26 -20 12 -11 28 -20 35 -20 7 0 13 -4 13 -9 0 -5 14 -14 30 -21 17 -7
30 -16 30 -21 0 -5 5 -9 11 -9 6 0 30 -13 54 -30 24 -16 46 -30 50 -30 3 0 11
-5 18 -11 20 -17 177 -117 177 -113 0 3 10 -4 22 -16 12 -11 26 -20 30 -20 5
0 18 -9 30 -20 12 -11 28 -20 35 -20 7 0 13 -4 13 -10 0 -5 7 -10 15 -10 8 0
15 -4 15 -8 0 -14 56 -29 78 -21 25 10 41 44 34 72 -4 17 -143 117 -162 117
-5 0 -10 3 -12 8 -4 9 -88 64 -88 57 0 -3 -9 3 -20 13 -11 10 -33 25 -48 33
-15 8 -29 16 -32 20 -3 3 -23 16 -45 29 -22 13 -44 28 -50 33 -15 11 -177 116
-195 125 -8 4 -55 33 -103 65 -48 31 -92 57 -97 57 -6 0 -10 4 -10 9 0 5 -13
14 -30 21 -16 7 -30 16 -30 21 0 5 -5 9 -10 9 -6 0 -23 9 -38 19 -15 10 -67
45 -117 76 -49 32 -134 87 -188 121 -53 35 -102 64 -107 64 -6 0 -10 4 -10 9
0 5 -11 12 -25 15 -14 4 -25 11 -25 16 0 5 -15 16 -34 25 -18 9 -44 26 -57 38
-13 12 -26 21 -29 21 -3 -1 -29 14 -58 32 -57 37 -92 43 -116 18z"/>
<path d="M715 3740 c-41 -16 -63 -63 -41 -90 12 -17 213 -140 227 -140 5 0 9
-4 9 -10 0 -5 4 -10 9 -10 10 0 148 -83 171 -102 8 -7 17 -12 20 -12 8 3 144
-78 175 -104 6 -4 13 -8 17 -8 4 1 16 -7 28 -16 11 -10 20 -15 20 -11 0 3 8
-1 18 -9 9 -8 62 -41 117 -73 55 -32 127 -75 160 -97 33 -21 65 -38 72 -38 7
0 13 -4 13 -8 0 -11 46 -32 70 -32 51 0 67 71 25 110 -14 13 -25 20 -25 16 0
-4 -15 4 -33 18 -19 15 -39 26 -45 26 -7 0 -12 5 -12 11 0 5 -5 7 -10 4 -6 -3
-10 -3 -10 2 0 4 -18 17 -40 27 -22 11 -40 23 -40 28 0 4 -5 8 -10 8 -6 0 -29
12 -53 27 -23 15 -51 32 -62 38 -11 6 -57 33 -103 60 -94 57 -127 76 -208 124
-33 19 -67 41 -76 49 -10 8 -18 11 -18 7 0 -5 -10 1 -22 12 -13 11 -27 22 -33
24 -5 2 -36 20 -68 39 -115 70 -132 80 -154 90 -13 5 -23 15 -23 21 0 7 -3 9
-7 6 -3 -4 -13 -1 -22 7 -10 9 -23 11 -36 6z"/>
<path d="M5310 4483 c-19 -7 -37 -17 -40 -21 -3 -4 -30 -23 -60 -42 -30 -18
-60 -38 -65 -44 -12 -13 -37 -29 -87 -56 -21 -11 -38 -25 -38 -30 0 -6 -7 -10
-15 -10 -8 0 -15 -5 -15 -11 0 -5 -5 -7 -10 -4 -6 3 -13 -1 -16 -9 -3 -9 -10
-16 -15 -16 -11 0 -431 -281 -441 -295 -5 -7 -8 -7 -8 0 0 6 -3 6 -8 0 -4 -6
-54 -42 -112 -80 -58 -39 -106 -73 -108 -77 -2 -5 -8 -8 -13 -8 -11 0 -223
-142 -227 -152 -2 -5 -8 -8 -13 -8 -11 0 -72 -42 -77 -52 -2 -5 -10 -8 -18 -8
-8 0 -14 -4 -14 -9 0 -5 -6 -11 -12 -13 -28 -7 -197 -125 -208 -145 -29 -51
21 -106 75 -81 14 6 25 15 25 20 0 4 4 8 9 8 7 0 470 304 506 333 6 4 33 22
60 40 28 17 56 37 63 44 7 7 20 13 28 13 8 0 14 4 14 8 0 5 16 17 35 28 19 10
35 22 35 26 0 5 4 8 9 8 9 0 188 117 209 137 6 6 21 15 32 18 11 3 20 11 20
16 0 5 5 9 10 9 12 0 73 41 78 53 2 4 8 7 13 7 9 0 93 56 123 83 11 9 24 17
28 17 5 0 33 18 63 40 30 22 56 40 59 40 9 0 101 64 104 73 2 4 8 5 13 1 5 -3
9 -1 9 5 0 6 13 17 30 26 91 47 63 158 -30 118z"/>
<path d="M5295 3807 c-22 -12 -42 -25 -45 -28 -3 -3 -27 -19 -55 -35 -27 -15
-56 -34 -63 -41 -6 -6 -21 -15 -32 -18 -11 -3 -20 -10 -20 -15 0 -4 -11 -11
-25 -14 -14 -4 -25 -11 -25 -16 0 -6 -4 -10 -9 -10 -5 0 -115 -67 -245 -150
-130 -82 -239 -150 -241 -150 -3 0 -28 -16 -55 -35 -27 -19 -52 -35 -55 -35
-3 0 -11 -5 -18 -10 -17 -14 -137 -90 -142 -90 -3 0 -16 -10 -30 -22 -30 -26
-32 -61 -5 -88 34 -34 37 -33 207 77 45 29 87 53 92 53 6 0 11 5 11 10 0 6 6
10 14 10 8 0 16 4 18 8 2 4 32 26 68 47 36 21 67 43 68 47 2 4 8 8 13 8 6 0
37 18 69 40 32 22 62 40 66 40 4 0 21 11 38 23 17 13 54 37 81 53 28 15 55 32
60 36 25 20 87 58 94 58 4 0 16 9 26 20 9 10 20 18 24 18 6 -2 89 49 171 105
25 17 46 31 47 31 1 1 4 13 7 28 5 30 -24 68 -52 68 -9 0 -35 -10 -57 -23z"/>
<path d="M1537 1914 c-1 -1 -22 -4 -47 -7 -25 -4 -56 -9 -70 -12 -14 -3 -34
-7 -45 -9 -78 -17 -218 -81 -310 -142 -105 -70 -128 -90 -219 -180 -68 -68
-161 -185 -206 -259 -13 -22 -27 -42 -30 -45 -18 -14 -101 -202 -98 -222 4
-33 22 -48 55 -48 38 0 44 6 73 70 29 66 136 242 168 276 12 14 22 28 22 31 0
6 37 47 116 127 193 195 416 297 654 299 146 1 243 -19 355 -76 22 -11 41 -19
43 -18 1 1 9 -4 17 -11 30 -28 44 -38 50 -38 21 0 245 -213 245 -232 0 -8 6
-15 58 -73 12 -14 20 -25 17 -25 -3 0 5 -15 18 -32 33 -44 118 -209 148 -285
13 -34 29 -69 35 -78 17 -23 71 -22 89 1 20 25 13 57 -32 163 -70 163 -193
357 -298 470 -84 91 -140 139 -230 200 -90 60 -219 119 -295 136 -66 14 -273
28 -283 19z"/>
<path d="M1449 1426 c-2 -2 -18 -6 -34 -9 -39 -6 -169 -57 -173 -69 -2 -4 -9
-8 -15 -8 -20 0 -155 -107 -219 -174 -132 -136 -162 -193 -123 -236 33 -37 69
-19 130 65 40 56 158 170 208 203 23 15 44 30 47 33 5 7 78 41 127 60 43 17
153 22 203 9 68 -17 75 -18 78 -20 1 -2 5 -3 10 -4 37 -10 160 -87 216 -135
47 -41 136 -133 165 -171 14 -19 33 -40 41 -47 20 -16 62 -8 78 14 14 20 13
62 -3 79 -5 6 -27 32 -49 58 -62 75 -144 152 -206 196 -19 13 -37 27 -40 30
-16 20 -173 95 -222 106 -5 1 -9 2 -10 4 -13 9 -201 24 -209 16z"/>
<path d="M4618 1915 c-2 -2 -21 -5 -43 -9 -22 -3 -51 -8 -65 -11 -14 -4 -34
-8 -45 -9 -11 -2 -20 -4 -20 -5 0 -2 -10 -4 -23 -7 -13 -2 -36 -11 -53 -19
-16 -9 -29 -13 -29 -11 0 3 -33 -12 -72 -33 -108 -57 -138 -75 -138 -83 0 -5
-7 -8 -15 -8 -9 0 -18 -7 -21 -15 -4 -8 -10 -15 -15 -15 -27 0 -206 -182 -281
-285 -32 -44 -63 -85 -68 -92 -19 -23 -122 -213 -115 -213 2 0 -2 -12 -10 -27
-12 -22 -12 -30 1 -55 8 -15 20 -29 27 -29 53 -5 73 15 109 104 12 31 25 57
29 57 3 0 14 18 24 40 10 22 23 40 28 40 6 0 8 3 4 6 -6 6 1 17 35 54 9 10 14
21 10 24 -3 3 0 6 6 6 6 0 13 9 17 20 7 22 190 210 248 254 51 39 126 86 137
86 4 0 10 4 12 8 6 14 155 73 223 87 130 28 267 27 385 -3 110 -29 253 -109
345 -194 22 -21 43 -38 48 -38 4 0 7 -7 7 -15 0 -8 7 -15 15 -15 8 0 15 -3 15
-7 0 -5 18 -28 40 -53 97 -108 230 -335 275 -465 25 -76 67 -102 106 -65 18
17 31 70 18 70 -5 0 -8 3 -7 8 1 4 -4 23 -11 42 -8 19 -15 37 -16 40 -16 53
-164 316 -185 330 -4 3 -9 10 -11 16 -15 42 -269 304 -294 304 -3 0 -15 9 -27
20 -12 11 -28 20 -35 20 -7 0 -13 4 -13 9 0 15 -177 91 -262 112 -66 17 -279
34 -290 24z"/>
<path d="M4529 1425 c-3 -2 -20 -7 -38 -10 -68 -12 -269 -114 -254 -128 3 -4
0 -7 -8 -7 -8 0 -53 -37 -100 -82 -172 -167 -212 -242 -145 -277 34 -19 58 -7
96 47 46 65 184 200 251 244 113 75 164 92 269 93 70 0 110 -6 150 -20 30 -11
57 -22 60 -25 3 -3 25 -16 50 -29 60 -33 210 -149 210 -163 0 -5 51 -61 117
-130 29 -31 49 -34 76 -14 19 14 32 76 16 76 -5 0 -9 7 -9 15 0 8 -4 15 -10
15 -5 0 -10 7 -10 16 0 8 -4 12 -10 9 -5 -3 -10 -1 -10 6 0 14 -154 168 -200
199 -19 13 -37 27 -40 30 -3 4 -21 15 -40 26 -19 10 -37 21 -40 25 -13 14
-152 71 -158 64 -3 -3 -11 0 -19 7 -13 10 -195 23 -204 13z"/>
</g>
</svg>
