<svg width="9" height="14" viewBox="0 0 9 14" fill="none" xmlns="http://www.w3.org/2000/svg">
<path d="M7.79014 0.289941C7.88387 0.382904 7.95826 0.493504 8.00903 0.615363C8.0598 0.737223 8.08594 0.867929 8.08594 0.99994C8.08594 1.13195 8.0598 1.26266 8.00903 1.38452C7.95826 1.50638 7.88387 1.61698 7.79014 1.70994L3.21014 6.28994C3.11641 6.3829 3.04202 6.4935 2.99125 6.61536C2.94048 6.73722 2.91434 6.86793 2.91434 6.99994C2.91434 7.13195 2.94048 7.26266 2.99125 7.38452C3.04202 7.50638 3.11641 7.61698 3.21014 7.70994L7.79014 12.2899C7.88387 12.3829 7.95826 12.4935 8.00903 12.6154C8.0598 12.7372 8.08594 12.8679 8.08594 12.9999C8.08594 13.132 8.0598 13.2627 8.00903 13.3845C7.95826 13.5064 7.88387 13.617 7.79014 13.7099C7.60278 13.8962 7.34933 14.0007 7.08514 14.0007C6.82095 14.0007 6.5675 13.8962 6.38014 13.7099L1.79014 9.11994C1.22834 8.55744 0.912779 7.79494 0.912779 6.99994C0.912779 6.20494 1.22834 5.44244 1.79014 4.87994L6.38014 0.289941C6.5675 0.10369 6.82095 -0.000853594 7.08514 -0.000853582C7.34933 -0.000853571 7.60278 0.10369 7.79014 0.289941Z" fill="#DB5475"/>
</svg>
