<svg width="9" height="14" viewBox="0 0 9 14" fill="none" xmlns="http://www.w3.org/2000/svg">
<path d="M1.2101 0.289941C1.11638 0.382904 1.04198 0.493504 0.991213 0.615363C0.940444 0.737223 0.914306 0.867929 0.914306 0.99994C0.914306 1.13195 0.940444 1.26266 0.991213 1.38452C1.04198 1.50638 1.11638 1.61698 1.2101 1.70994L5.7901 6.28994C5.88383 6.3829 5.95823 6.4935 6.009 6.61536C6.05976 6.73722 6.0859 6.86793 6.0859 6.99994C6.0859 7.13195 6.05976 7.26266 6.009 7.38452C5.95823 7.50638 5.88383 7.61698 5.7901 7.70994L1.2101 12.2899C1.11638 12.3829 1.04198 12.4935 0.991213 12.6154C0.940445 12.7372 0.914307 12.8679 0.914307 12.9999C0.914307 13.132 0.940445 13.2627 0.991213 13.3845C1.04198 13.5064 1.11638 13.617 1.2101 13.7099C1.39747 13.8962 1.65092 14.0007 1.9151 14.0007C2.17929 14.0007 2.43274 13.8962 2.6201 13.7099L7.2101 9.11994C7.77191 8.55744 8.08747 7.79494 8.08746 6.99994C8.08746 6.20494 7.77191 5.44244 7.2101 4.87994L2.6201 0.289941C2.43274 0.10369 2.17929 -0.000853594 1.9151 -0.000853582C1.65092 -0.000853571 1.39747 0.10369 1.2101 0.289941Z" fill="#DB5475"/>
</svg>
