<svg width="9" height="14" viewBox="0 0 9 14" fill="none" xmlns="http://www.w3.org/2000/svg">
<path d="M1.20986 0.290002C1.11613 0.382965 1.04174 0.493565 0.990969 0.615424C0.9402 0.737283 0.914062 0.867989 0.914062 1C0.914062 1.13201 0.9402 1.26272 0.990969 1.38458C1.04174 1.50644 1.11613 1.61704 1.20986 1.71L5.78986 6.29C5.88359 6.38296 5.95798 6.49356 6.00875 6.61542C6.05952 6.73728 6.08566 6.86799 6.08566 7C6.08566 7.13201 6.05952 7.26272 6.00875 7.38458C5.95798 7.50644 5.88359 7.61704 5.78986 7.71L1.20986 12.29C1.11613 12.383 1.04174 12.4936 0.990969 12.6154C0.9402 12.7373 0.914062 12.868 0.914062 13C0.914062 13.132 0.9402 13.2627 0.990969 13.3846C1.04174 13.5064 1.11613 13.617 1.20986 13.71C1.39722 13.8963 1.65067 14.0008 1.91486 14.0008C2.17905 14.0008 2.4325 13.8963 2.61986 13.71L7.20986 9.12C7.77166 8.5575 8.08722 7.795 8.08722 7C8.08722 6.205 7.77166 5.4425 7.20986 4.88L2.61986 0.290002C2.4325 0.103751 2.17905 -0.000792559 1.91486 -0.000792547C1.65067 -0.000792536 1.39722 0.103751 1.20986 0.290002Z" fill="white"/>
</svg>
