<svg width="201" height="61" viewBox="0 0 201 61" fill="none" xmlns="http://www.w3.org/2000/svg">
<path d="M2 10.3847C4.89089 11.8576 7.70951 12.8791 10.8005 13.5475C23.2166 16.2324 35.835 17.4672 48.4212 17.8076C62.8111 18.1967 77.3225 18.2576 91.7031 17.3557C95.9327 17.0905 102.422 17.36 105.933 13.6443C108.593 10.8301 103.184 6.62533 101.533 5.86641C92.9336 1.91459 79.5229 -0.120472 71.0143 5.28549C67.1411 7.74627 66.445 13.2754 68.6469 17.7108C71.7535 23.9686 77.8038 29.1222 82.5424 33.1052C90.6266 39.9003 99.5077 43.9306 108.892 46.8859C126.913 52.5608 146.299 53.8288 164.835 53.9538C172.435 54.005 180.081 54.1668 187.659 53.3083C191.331 52.8924 194.002 52.3944 197 49.8873" stroke="#55AFB5" stroke-width="3" stroke-linecap="round"/>
<path d="M189.388 47.5368C190.458 47.554 191.324 47.8398 192.351 48.1061C193.676 48.4496 195.141 48.4987 196.504 48.4491C196.68 48.4427 197.777 47.9684 197.979 48.2375C198.272 48.6285 198.059 49.8001 198.059 50.252C198.059 51.544 198.097 52.8347 198.351 54.1059C198.552 55.1094 198.571 56.2114 198.862 57.186C199.016 57.7045 199.241 58.1544 199.241 58.7042" stroke="#55AFB5" stroke-width="3" stroke-linecap="round"/>
</svg>
