<svg width="22" height="22" viewBox="0 0 22 22" fill="none" xmlns="http://www.w3.org/2000/svg">
<path d="M17.4167 0.916748H4.58333C3.3682 0.918204 2.20326 1.40156 1.34403 2.26078C0.484808 3.12001 0.00145554 4.28495 0 5.50008L0 16.5001C0.00145554 17.7152 0.484808 18.8802 1.34403 19.7394C2.20326 20.5986 3.3682 21.082 4.58333 21.0834H17.4167C18.6318 21.082 19.7967 20.5986 20.656 19.7394C21.5152 18.8802 21.9985 17.7152 22 16.5001V5.50008C21.9985 4.28495 21.5152 3.12001 20.656 2.26078C19.7967 1.40156 18.6318 0.918204 17.4167 0.916748ZM4.58333 2.75008H17.4167C17.9656 2.75116 18.5016 2.91647 18.9557 3.22474C19.4099 3.533 19.7614 3.97012 19.965 4.47983L12.9452 11.5006C12.4286 12.0151 11.7291 12.304 11 12.304C10.2709 12.304 9.57144 12.0151 9.05483 11.5006L2.035 4.47983C2.23864 3.97012 2.59015 3.533 3.04429 3.22474C3.49844 2.91647 4.03445 2.75116 4.58333 2.75008ZM17.4167 19.2501H4.58333C3.85399 19.2501 3.15451 18.9604 2.63879 18.4446C2.12306 17.9289 1.83333 17.2294 1.83333 16.5001V6.87508L7.75867 12.7967C8.61908 13.655 9.78474 14.137 11 14.137C12.2153 14.137 13.3809 13.655 14.2413 12.7967L20.1667 6.87508V16.5001C20.1667 17.2294 19.8769 17.9289 19.3612 18.4446C18.8455 18.9604 18.146 19.2501 17.4167 19.2501Z" fill="#DB5475"/>
</svg>
