<svg width="22" height="22" viewBox="0 0 22 22" fill="none" xmlns="http://www.w3.org/2000/svg">
<g clip-path="url(#clip0_111_380)">
<mask id="path-1-inside-1_111_380" fill="white">
<path fill-rule="evenodd" clip-rule="evenodd" d="M22 15.8889V6.11111C22 4.49034 21.3562 2.93596 20.2101 1.7899C19.064 0.643847 17.5097 0 15.8889 0H6.11111C4.49034 0 2.93596 0.643847 1.7899 1.7899C0.643847 2.93596 0 4.49034 0 6.11111V15.8889C0 17.5097 0.643847 19.064 1.7899 20.2101C2.93596 21.3562 4.49034 22 6.11111 22H8.7777V12.4701H7.33325C6.78097 12.4701 6.33325 12.0224 6.33325 11.4701C6.33325 10.9178 6.78097 10.4701 7.33325 10.4701H8.7777V10.1539C8.7777 8.69711 8.91831 7.09242 9.80604 5.85767C10.7507 4.54374 12.3464 3.88892 14.6666 3.88892C15.2189 3.88892 15.6666 4.33663 15.6666 4.88892C15.6666 5.4412 15.2189 5.88892 14.6666 5.88892C12.709 5.88892 11.8602 6.42661 11.4299 7.02517C10.9426 7.70292 10.7777 8.73071 10.7777 10.1539V10.4701H14.6666C15.2189 10.4701 15.6666 10.9178 15.6666 11.4701C15.6666 12.0224 15.2189 12.4701 14.6666 12.4701H10.7777V22H15.8889C17.5097 22 19.064 21.3562 20.2101 20.2101C21.3562 19.064 22 17.5097 22 15.8889Z"/>
</mask>
<path fill-rule="evenodd" clip-rule="evenodd" d="M22 15.8889V6.11111C22 4.49034 21.3562 2.93596 20.2101 1.7899C19.064 0.643847 17.5097 0 15.8889 0H6.11111C4.49034 0 2.93596 0.643847 1.7899 1.7899C0.643847 2.93596 0 4.49034 0 6.11111V15.8889C0 17.5097 0.643847 19.064 1.7899 20.2101C2.93596 21.3562 4.49034 22 6.11111 22H8.7777V12.4701H7.33325C6.78097 12.4701 6.33325 12.0224 6.33325 11.4701C6.33325 10.9178 6.78097 10.4701 7.33325 10.4701H8.7777V10.1539C8.7777 8.69711 8.91831 7.09242 9.80604 5.85767C10.7507 4.54374 12.3464 3.88892 14.6666 3.88892C15.2189 3.88892 15.6666 4.33663 15.6666 4.88892C15.6666 5.4412 15.2189 5.88892 14.6666 5.88892C12.709 5.88892 11.8602 6.42661 11.4299 7.02517C10.9426 7.70292 10.7777 8.73071 10.7777 10.1539V10.4701H14.6666C15.2189 10.4701 15.6666 10.9178 15.6666 11.4701C15.6666 12.0224 15.2189 12.4701 14.6666 12.4701H10.7777V22H15.8889C17.5097 22 19.064 21.3562 20.2101 20.2101C21.3562 19.064 22 17.5097 22 15.8889Z" fill="#DB5475"/>
<path d="M20.2101 1.7899L21.6243 0.37569V0.37569L20.2101 1.7899ZM1.7899 1.7899L0.37569 0.375689L0.375689 0.37569L1.7899 1.7899ZM1.7899 20.2101L0.37569 21.6243H0.37569L1.7899 20.2101ZM8.7777 22V24C9.88227 24 10.7777 23.1046 10.7777 22H8.7777ZM8.7777 12.4701H10.7777C10.7777 11.3655 9.88227 10.4701 8.7777 10.4701V12.4701ZM8.7777 10.4701V12.4701C9.88227 12.4701 10.7777 11.5747 10.7777 10.4701H8.7777ZM9.80604 5.85767L11.4299 7.02517L11.4299 7.02517L9.80604 5.85767ZM11.4299 7.02517L13.0538 8.19266L13.0538 8.19266L11.4299 7.02517ZM10.7777 10.4701H8.7777C8.7777 11.5747 9.67313 12.4701 10.7777 12.4701V10.4701ZM10.7777 12.4701V10.4701C9.67313 10.4701 8.7777 11.3655 8.7777 12.4701H10.7777ZM10.7777 22H8.7777C8.7777 23.1046 9.67313 24 10.7777 24V22ZM20 6.11111V15.8889H24V6.11111H20ZM18.7959 3.20412C19.5669 3.9751 20 5.02078 20 6.11111H24C24 3.95991 23.1454 1.89682 21.6243 0.37569L18.7959 3.20412ZM15.8889 2C16.9792 2 18.0249 2.43313 18.7959 3.20412L21.6243 0.37569C20.1032 -1.14544 18.0401 -2 15.8889 -2V2ZM6.11111 2H15.8889V-2H6.11111V2ZM3.20412 3.20412C3.9751 2.43313 5.02078 2 6.11111 2V-2C3.95991 -2 1.89682 -1.14544 0.37569 0.375689L3.20412 3.20412ZM2 6.11111C2 5.02078 2.43313 3.9751 3.20412 3.20412L0.375689 0.37569C-1.14544 1.89682 -2 3.95991 -2 6.11111H2ZM2 15.8889V6.11111H-2V15.8889H2ZM3.20412 18.7959C2.43313 18.0249 2 16.9792 2 15.8889H-2C-2 18.0401 -1.14544 20.1032 0.37569 21.6243L3.20412 18.7959ZM6.11111 20C5.02078 20 3.9751 19.5669 3.20412 18.7959L0.37569 21.6243C1.89682 23.1454 3.95991 24 6.11111 24V20ZM8.7777 20H6.11111V24H8.7777V20ZM10.7777 22V12.4701H6.7777V22H10.7777ZM8.7777 10.4701H7.33325V14.4701H8.7777V10.4701ZM7.33325 10.4701C7.88554 10.4701 8.33325 10.9178 8.33325 11.4701H4.33325C4.33325 13.127 5.6764 14.4701 7.33325 14.4701V10.4701ZM8.33325 11.4701C8.33325 12.0224 7.88554 12.4701 7.33325 12.4701V8.47011C5.6764 8.47011 4.33325 9.81326 4.33325 11.4701H8.33325ZM7.33325 12.4701H8.7777V8.47011H7.33325V12.4701ZM10.7777 10.4701V10.1539H6.7777V10.4701H10.7777ZM10.7777 10.1539C10.7777 8.73297 10.942 7.70378 11.4299 7.02517L8.18217 4.69018C6.8946 6.48107 6.7777 8.66124 6.7777 10.1539H10.7777ZM11.4299 7.02517C11.8586 6.42887 12.705 5.88892 14.6666 5.88892V1.88892C11.9878 1.88892 9.64278 2.6586 8.18217 4.69018L11.4299 7.02517ZM14.6666 5.88892C14.1143 5.88892 13.6666 5.4412 13.6666 4.88892H17.6666C17.6666 3.23206 16.3234 1.88892 14.6666 1.88892V5.88892ZM13.6666 4.88892C13.6666 4.33663 14.1143 3.88892 14.6666 3.88892V7.88892C16.3234 7.88892 17.6666 6.54577 17.6666 4.88892H13.6666ZM14.6666 3.88892C12.3403 3.88892 10.7481 4.54731 9.80604 5.85767L13.0538 8.19266C13.0598 8.18424 13.0661 8.17679 13.0803 8.16559C13.0953 8.15375 13.1393 8.12199 13.2338 8.08326C13.4328 8.00173 13.8581 7.88892 14.6666 7.88892V3.88892ZM9.80604 5.85767C8.91744 7.09364 8.7777 8.70033 8.7777 10.1539H12.7777C12.7777 8.76109 12.9678 8.3122 13.0538 8.19266L9.80604 5.85767ZM8.7777 10.1539V10.4701H12.7777V10.1539H8.7777ZM10.7777 12.4701H14.6666V8.47011H10.7777V12.4701ZM14.6666 12.4701C14.1143 12.4701 13.6666 12.0224 13.6666 11.4701H17.6666C17.6666 9.81326 16.3234 8.47011 14.6666 8.47011V12.4701ZM13.6666 11.4701C13.6666 10.9178 14.1143 10.4701 14.6666 10.4701V14.4701C16.3234 14.4701 17.6666 13.127 17.6666 11.4701H13.6666ZM14.6666 10.4701H10.7777V14.4701H14.6666V10.4701ZM8.7777 12.4701V22H12.7777V12.4701H8.7777ZM15.8889 20H10.7777V24H15.8889V20ZM18.7959 18.7959C18.0249 19.5669 16.9792 20 15.8889 20V24C18.0401 24 20.1032 23.1454 21.6243 21.6243L18.7959 18.7959ZM20 15.8889C20 16.9792 19.5669 18.0249 18.7959 18.7959L21.6243 21.6243C23.1454 20.1032 24 18.0401 24 15.8889H20Z" fill="#DB5475" mask="url(#path-1-inside-1_111_380)"/>
</g>
<defs>
<clipPath id="clip0_111_380">
<rect width="22" height="22" fill="white"/>
</clipPath>
</defs>
</svg>
