<svg width="18" height="18" viewBox="0 0 18 18" fill="none" xmlns="http://www.w3.org/2000/svg">
<path d="M10.382 12.9488L7.93579 15.395C6.44348 16.8474 4.05633 16.8151 2.60392 15.3228C1.17952 13.8593 1.1792 11.5278 2.60318 10.0639L5.04938 7.61545C5.3422 7.32243 5.34202 6.84752 5.04899 6.5547C4.75596 6.26189 4.28106 6.26206 3.98824 6.55509L1.54278 9.00354C-0.514992 11.0624 -0.514148 14.3995 1.54464 16.4573C3.60343 18.5151 6.9406 18.5142 8.9984 16.4554L11.4446 14.0092C11.7323 13.7113 11.7241 13.2366 11.4262 12.9489C11.1356 12.6682 10.6748 12.6682 10.3842 12.9489H10.382V12.9488Z" fill="#919191"/>
<path d="M16.4555 1.54559C15.4698 0.553137 14.1279 -0.00346143 12.7292 1.8627e-05C11.3312 -0.0037075 9.98975 0.551731 9.00359 1.5426L6.55363 3.98954C6.2606 4.28236 6.26042 4.75726 6.55324 5.05029C6.84606 5.34332 7.32096 5.34349 7.61399 5.05068L10.0624 2.60448C10.7676 1.89503 11.7274 1.49729 12.7276 1.49985C14.8101 1.50056 16.4976 3.18923 16.4969 5.27164C16.4966 6.27109 16.0995 7.22955 15.3928 7.93635L12.9466 10.3826C12.6536 10.6756 12.6536 11.1507 12.9466 11.4437C13.2396 11.7367 13.7147 11.7367 14.0077 11.4437L16.4539 8.99896C18.5088 6.93961 18.5095 3.60571 16.4555 1.54559Z" fill="#919191"/>
<path d="M10.7179 6.21904L6.21844 10.7185C5.92052 11.0062 5.9123 11.481 6.20002 11.7789C6.48774 12.0768 6.9625 12.085 7.26038 11.7973C7.26664 11.7912 7.27276 11.7851 7.2788 11.7789L11.7783 7.2794C12.066 6.98149 12.0577 6.50676 11.7598 6.21904C11.4693 5.93838 11.0085 5.93838 10.7179 6.21904Z" fill="#919191"/>
</svg>
