<svg width="22" height="22" viewBox="0 0 22 22" fill="none" xmlns="http://www.w3.org/2000/svg">
<path d="M17.8364 17.0122L14.3573 13.5332C15.3054 12.3736 15.7716 10.8941 15.6593 9.40048C15.5471 7.9069 14.8651 6.51358 13.7544 5.50874C12.6437 4.50389 11.1893 3.96439 9.69195 4.00183C8.19463 4.03926 6.76897 4.65078 5.70987 5.70987C4.65078 6.76897 4.03926 8.19463 4.00183 9.69195C3.96439 11.1893 4.50389 12.6437 5.50874 13.7544C6.51358 14.8651 7.9069 15.5471 9.40048 15.6593C10.8941 15.7716 12.3736 15.3054 13.5332 14.3573L17.0122 17.8364C17.1222 17.9426 17.2694 18.0013 17.4222 18C17.575 17.9987 17.7212 17.9374 17.8293 17.8293C17.9374 17.7212 17.9987 17.575 18 17.4222C18.0013 17.2694 17.9426 17.1222 17.8364 17.0122ZM9.8472 14.51C8.92498 14.51 8.02347 14.2366 7.25667 13.7242C6.48987 13.2118 5.89222 12.4836 5.5393 11.6316C5.18638 10.7796 5.09404 9.84203 5.27396 8.93753C5.45388 8.03302 5.89797 7.20219 6.55008 6.55008C7.20219 5.89797 8.03302 5.45388 8.93753 5.27396C9.84203 5.09404 10.7796 5.18638 11.6316 5.5393C12.4836 5.89222 13.2118 6.48987 13.7242 7.25667C14.2366 8.02347 14.51 8.92498 14.51 9.8472C14.5086 11.0834 14.0169 12.2686 13.1428 13.1428C12.2686 14.0169 11.0834 14.5086 9.8472 14.51Z" fill="#DB5475"/>
</svg>
