<svg width="22" height="22" viewBox="0 0 22 22" fill="none" xmlns="http://www.w3.org/2000/svg">
<g clip-path="url(#clip0_111_379)">
<path fill-rule="evenodd" clip-rule="evenodd" d="M5.92308 0H16.0769C17.6473 0.00167985 19.1529 0.626256 20.2633 1.73668C21.3737 2.84711 21.9983 4.35269 22 5.92308V16.0769C21.9983 17.6473 21.3737 19.1529 20.2633 20.2633C19.1529 21.3737 17.6473 21.9983 16.0769 22H5.92308C4.35269 21.9983 2.84711 21.3737 1.73668 20.2633C0.626256 19.1529 0.00167985 17.6473 0 16.0769V5.92308C0.00167985 4.35269 0.626256 2.84711 1.73668 1.73668C2.84711 0.626256 4.35269 0.00167985 5.92308 0ZM17.5553 6.20515C17.6948 5.99642 17.7692 5.75103 17.7692 5.5C17.7692 5.16338 17.6355 4.84055 17.3975 4.60252C17.1595 4.36449 16.8366 4.23077 16.5 4.23077C16.249 4.23077 16.0036 4.30521 15.7949 4.44467C15.5861 4.58414 15.4235 4.78236 15.3274 5.01429C15.2313 5.24621 15.2062 5.50141 15.2552 5.74761C15.3041 5.99382 15.425 6.21998 15.6025 6.39748C15.78 6.57499 16.0062 6.69587 16.2524 6.74484C16.4986 6.79382 16.7538 6.76868 16.9857 6.67262C17.2176 6.57655 17.4159 6.41387 17.5553 6.20515ZM14.3 11C14.3 12.8225 12.8225 14.3 11 14.3C9.17746 14.3 7.7 12.8225 7.7 11C7.7 9.17746 9.17746 7.7 11 7.7C12.8225 7.7 14.3 9.17746 14.3 11ZM16 11C16 13.7614 13.7614 16 11 16C8.23858 16 6 13.7614 6 11C6 8.23858 8.23858 6 11 6C13.7614 6 16 8.23858 16 11Z" fill="#DB5475"/>
</g>
<defs>
<clipPath id="clip0_111_379">
<rect width="22" height="22" fill="white"/>
</clipPath>
</defs>
</svg>
