<svg width="22" height="22" viewBox="0 0 22 22" fill="none" xmlns="http://www.w3.org/2000/svg">
<path d="M11 5.92308C9.99588 5.92308 9.01431 6.22083 8.17941 6.77869C7.34452 7.33655 6.6938 8.12946 6.30954 9.05715C5.92527 9.98483 5.82473 11.0056 6.02063 11.9905C6.21652 12.9753 6.70005 13.8799 7.41007 14.5899C8.12009 15.2999 9.02472 15.7835 10.0095 15.9794C10.9944 16.1753 12.0152 16.0747 12.9429 15.6905C13.8705 15.3062 14.6634 14.6555 15.2213 13.8206C15.7792 12.9857 16.0769 12.0041 16.0769 11C16.0755 9.65395 15.5402 8.36342 14.5884 7.41162C13.6366 6.45982 12.3461 5.92448 11 5.92308ZM11 14.3846C10.3306 14.3846 9.67621 14.1861 9.11961 13.8142C8.56301 13.4423 8.1292 12.9137 7.87302 12.2952C7.61685 11.6768 7.54982 10.9962 7.68042 10.3397C7.81102 9.68314 8.13337 9.08006 8.60672 8.60672C9.08006 8.13337 9.68314 7.81102 10.3397 7.68042C10.9962 7.54982 11.6768 7.61685 12.2952 7.87302C12.9137 8.1292 13.4423 8.56301 13.8142 9.11961C14.1861 9.67621 14.3846 10.3306 14.3846 11C14.3846 11.8977 14.028 12.7585 13.3933 13.3933C12.7585 14.028 11.8977 14.3846 11 14.3846ZM16.0769 0H5.92308C4.35269 0.00167985 2.84711 0.626256 1.73668 1.73668C0.626256 2.84711 0.00167985 4.35269 0 5.92308V16.0769C0.00167985 17.6473 0.626256 19.1529 1.73668 20.2633C2.84711 21.3737 4.35269 21.9983 5.92308 22H16.0769C17.6473 21.9983 19.1529 21.3737 20.2633 20.2633C21.3737 19.1529 21.9983 17.6473 22 16.0769V5.92308C21.9983 4.35269 21.3737 2.84711 20.2633 1.73668C19.1529 0.626256 17.6473 0.00167985 16.0769 0ZM20.3077 16.0769C20.3077 17.199 19.862 18.2751 19.0685 19.0685C18.2751 19.862 17.199 20.3077 16.0769 20.3077H5.92308C4.80101 20.3077 3.72489 19.862 2.93147 19.0685C2.13805 18.2751 1.69231 17.199 1.69231 16.0769V5.92308C1.69231 4.80101 2.13805 3.72489 2.93147 2.93147C3.72489 2.13805 4.80101 1.69231 5.92308 1.69231H16.0769C17.199 1.69231 18.2751 2.13805 19.0685 2.93147C19.862 3.72489 20.3077 4.80101 20.3077 5.92308V16.0769ZM17.7692 5.5C17.7692 5.75103 17.6948 5.99642 17.5553 6.20515C17.4159 6.41387 17.2176 6.57655 16.9857 6.67262C16.7538 6.76868 16.4986 6.79382 16.2524 6.74484C16.0062 6.69587 15.78 6.57499 15.6025 6.39748C15.425 6.21998 15.3041 5.99382 15.2552 5.74761C15.2062 5.50141 15.2313 5.24621 15.3274 5.01429C15.4234 4.78236 15.5861 4.58414 15.7949 4.44467C16.0036 4.30521 16.249 4.23077 16.5 4.23077C16.8366 4.23077 17.1595 4.36449 17.3975 4.60252C17.6355 4.84055 17.7692 5.16338 17.7692 5.5Z" fill="#DB5475"/>
</svg>
