<svg width="18" height="18" viewBox="0 0 18 18" fill="none" xmlns="http://www.w3.org/2000/svg">
<path d="M10.382 12.9487L7.93579 15.3949C6.44348 16.8474 4.05633 16.815 2.60392 15.3227C1.17952 13.8593 1.1792 11.5278 2.60318 10.0638L5.04938 7.61539C5.3422 7.32237 5.34202 6.84746 5.04899 6.55464C4.75596 6.26183 4.28106 6.262 3.98824 6.55503L1.54278 9.00348C-0.514992 11.0623 -0.514148 14.3994 1.54464 16.4572C3.60343 18.515 6.9406 18.5142 8.9984 16.4554L11.4446 14.0092C11.7323 13.7113 11.7241 13.2365 11.4262 12.9488C11.1356 12.6681 10.6748 12.6681 10.3842 12.9488H10.382V12.9487Z" fill="#919191"/>
<path d="M16.4557 1.54559C15.4701 0.553137 14.1281 -0.00346143 12.7294 1.8627e-05C11.3314 -0.0037075 9.98999 0.551731 9.00383 1.5426L6.55387 3.98954C6.26084 4.28236 6.26067 4.75726 6.55348 5.05029C6.8463 5.34332 7.32121 5.34349 7.61423 5.05068L10.0627 2.60448C10.7679 1.89503 11.7276 1.49729 12.7279 1.49985C14.8103 1.50056 16.4979 3.18923 16.4972 5.27164C16.4969 6.27109 16.0997 7.22955 15.393 7.93635L12.9468 10.3826C12.6538 10.6756 12.6538 11.1507 12.9468 11.4437C13.2399 11.7367 13.715 11.7367 14.008 11.4437L16.4542 8.99896C18.5091 6.93961 18.5097 3.60571 16.4557 1.54559Z" fill="#919191"/>
<path d="M10.7182 6.21904L6.21868 10.7185C5.92077 11.0062 5.91254 11.481 6.20026 11.7789C6.48798 12.0768 6.96275 12.085 7.26063 11.7973C7.26688 11.7912 7.273 11.7851 7.27905 11.7789L11.7785 7.2794C12.0662 6.98149 12.058 6.50676 11.7601 6.21904C11.4695 5.93838 11.0088 5.93838 10.7182 6.21904Z" fill="#919191"/>
</svg>
