<svg width="207" height="18" viewBox="0 0 207 18" fill="none" xmlns="http://www.w3.org/2000/svg">
<path d="M0 1.38307C0 1.06992 0.0521913 0.861157 0.156574 0.756775C0.260957 0.652392 0.443626 0.6002 0.704583 0.6002C1.03513 0.6002 1.25259 0.678487 1.35697 0.835061C1.60053 1.2178 2.23553 3.83606 3.26196 8.68985C3.66209 10.5687 4.01873 11.9431 4.33188 12.813C4.66242 13.6828 5.01906 14.1786 5.4018 14.3004H5.4279C5.72365 14.3004 6.14988 13.2479 6.70658 11.1428C7.26329 9.0378 7.74171 6.68919 8.14184 4.09702C8.36801 2.47909 8.52458 1.49615 8.61157 1.14821C8.71595 0.78287 8.88122 0.6002 9.10738 0.6002C9.24656 0.6002 9.35964 0.608899 9.44663 0.626297C9.63799 0.643694 9.76847 0.669789 9.83806 0.704583C9.92505 0.721981 9.98594 0.782871 10.0207 0.887253C10.0729 0.991635 10.099 1.15691 10.099 1.38307C10.099 1.69622 10.0903 1.96587 10.0729 2.19204C9.98594 4.00133 9.6032 6.43693 8.92471 9.49882C8.26362 12.5607 7.67212 14.544 7.15021 15.4486C6.87186 15.9183 6.35864 16.1532 5.61057 16.1532C5.24523 16.1532 4.88859 16.0749 4.54064 15.9183C4.12311 15.727 3.79257 15.5095 3.54901 15.266C3.32285 15.005 3.06189 14.4831 2.76614 13.7002C2.47039 12.9173 2.18334 11.9605 1.90498 10.8297C1.62663 9.68149 1.24389 7.97657 0.756774 5.71495C0.252258 3.41853 0 1.97457 0 1.38307Z" fill="#DB5475"/>
<path d="M13.0758 0.704583C13.1801 0.461023 13.4237 0.339244 13.8064 0.339244C14.224 0.339244 14.4849 0.469722 14.5893 0.73068C14.6937 1.04383 14.7459 1.40047 14.7459 1.8006C14.7459 2.3921 15.0677 3.27935 15.7114 4.46236C16.3551 5.62796 17.0162 6.52391 17.6947 7.15021C18.1992 7.63733 18.8342 8.12445 19.5997 8.61157C20.3825 9.09869 20.8871 9.34224 21.1132 9.34224C21.2176 9.34224 21.2872 7.91568 21.322 5.06256C21.3568 3.18367 21.4003 1.98327 21.4525 1.46136C21.522 0.939444 21.6438 0.617598 21.8178 0.495819C21.9222 0.408833 22.0527 0.365341 22.2092 0.365341C22.3484 0.365341 22.4876 0.42623 22.6268 0.548009C22.8007 0.704583 22.9051 1.12211 22.9399 1.8006C22.9921 2.47909 23.0182 3.98394 23.0182 6.31515C23.0182 9.32485 22.9312 11.4038 22.7572 12.552C22.5833 13.6828 22.2179 14.544 21.6612 15.1355C20.8784 15.9531 19.7997 16.362 18.4254 16.362C18.3732 16.362 18.3036 16.362 18.2166 16.362C18.1296 16.3446 18.06 16.3359 18.0078 16.3359C17.5033 16.3011 17.1815 16.2402 17.0423 16.1532C16.9205 16.0662 16.8422 15.8749 16.8074 15.5791C16.8074 15.5443 16.7987 15.4921 16.7813 15.4225C16.7813 15.3529 16.7813 15.3095 16.7813 15.2921C16.7813 15.0833 16.8944 14.9354 17.1206 14.8484C17.3641 14.7614 17.9295 14.6484 18.8168 14.5092C20.0346 14.3178 20.7305 13.648 20.9045 12.4998L21.0349 11.4821L19.2865 10.5165C16.7813 9.10738 15.0242 7.34158 14.0152 5.21913C13.3193 3.82736 12.9714 2.55738 12.9714 1.40917C12.9714 1.09602 13.0062 0.861157 13.0758 0.704583Z" fill="#DB5475"/>
<path d="M29.6781 2.68785C29.1214 2.44429 28.6169 2.32251 28.1645 2.32251H27.5383L27.5122 7.90698C27.4774 11.8387 27.4426 13.9438 27.4078 14.2221L27.3556 14.9267L29.1823 14.8223C30.1913 14.7527 30.9916 14.5875 31.5831 14.3265C32.192 14.0482 32.7139 13.6219 33.1488 13.0478C33.5837 12.4563 33.8012 11.3516 33.8012 9.73368C33.8012 8.88122 33.7229 8.06356 33.5663 7.28069C33.4272 6.5848 33.2619 6.08029 33.0705 5.76714C32.8792 5.43659 32.479 4.97557 31.8701 4.38407C31.0003 3.51422 30.2696 2.94881 29.6781 2.68785ZM25.9464 0.861158C25.9986 0.652392 26.4509 0.548009 27.3034 0.548009C28.643 0.548009 29.7216 0.739378 30.5393 1.12211C31.3743 1.52225 32.2964 2.23553 33.3054 3.26196C34.3144 4.27099 34.9059 5.08865 35.0799 5.71495C35.3756 6.81097 35.5235 8.36801 35.5235 10.3861C35.5235 11.4821 35.4539 12.2563 35.3148 12.7086C34.932 13.909 34.1231 14.8919 32.8879 15.6574C32.3659 15.9879 31.5309 16.2663 30.3827 16.4925C29.2345 16.7186 28.1993 16.8317 27.2773 16.8317C26.4944 16.8317 26.016 16.7447 25.842 16.5707C25.7029 16.4316 25.6333 15.3008 25.6333 13.1783C25.6333 12.6912 25.6507 11.2124 25.6855 8.74204C25.7724 3.67949 25.8594 1.05253 25.9464 0.861158Z" fill="#DB5475"/>
<path d="M45.6609 4.2014C45.1911 2.84443 44.7736 2.16594 44.4083 2.16594C44.1647 2.16594 43.8255 2.43559 43.3905 2.9749C43.0252 3.42723 42.6077 4.1927 42.138 5.27132C41.6856 6.33255 41.4595 7.06322 41.4595 7.46336C41.4595 7.55034 41.4682 7.60253 41.4856 7.61993C41.5725 7.7765 42.4076 7.85479 43.9907 7.85479H46.3654L46.3394 7.01973C46.3394 6.6022 46.1132 5.66276 45.6609 4.2014ZM43.2079 0.808966C43.7646 0.461024 44.2865 0.287053 44.7736 0.287053C45.5565 0.287053 46.1567 0.704583 46.5742 1.53964C46.8178 2.04416 47.1222 2.92271 47.4876 4.1753C47.8703 5.4105 48.1226 6.40213 48.2443 7.15021C48.3313 7.7765 48.4966 8.08965 48.7402 8.08965C48.8967 8.08965 49.0185 8.16794 49.1055 8.32451C49.2099 8.48109 49.2621 8.66376 49.2621 8.87252C49.2621 9.13348 49.1838 9.35964 49.0272 9.55101C48.8706 9.74238 48.7923 9.99464 48.7923 10.3078C48.7923 10.6035 48.8271 10.9515 48.8967 11.3516C48.9315 11.543 49.0533 12.5607 49.2621 14.4048C49.3143 14.9267 49.3404 15.3095 49.3404 15.553C49.3404 15.9183 49.2099 16.188 48.9489 16.362C48.7749 16.449 48.6271 16.4925 48.5053 16.4925C48.0008 16.4925 47.6702 15.9097 47.5137 14.744C47.1483 11.63 46.8178 9.98594 46.522 9.81197C46.3481 9.70758 45.5304 9.65539 44.069 9.65539H43.4949L40.7549 9.73368L40.4156 11.2472C40.1895 12.1867 40.0068 13.3958 39.8676 14.8745L39.7111 17.0144H38.1975L38.2236 14.744C38.2584 13.2305 38.3976 11.9344 38.6411 10.8558C38.7977 10.1773 38.876 9.65539 38.876 9.29005C38.876 9.06389 38.8499 8.89862 38.7977 8.79424C38.7281 8.65506 38.6933 8.55068 38.6933 8.48109C38.6933 8.30712 38.7977 8.11575 39.0065 7.90698C39.25 7.66342 39.5545 7.05453 39.9198 6.08029C40.1982 5.26262 40.5461 4.41017 40.9636 3.52291C41.3986 2.63566 41.7552 2.03546 42.0336 1.72231C42.2249 1.49615 42.6164 1.1917 43.2079 0.808966Z" fill="#DB5475"/>
<path d="M52.1403 1.38307C52.1403 1.06992 52.1925 0.861157 52.2969 0.756775C52.4013 0.652392 52.584 0.6002 52.8449 0.6002C53.1755 0.6002 53.3929 0.678487 53.4973 0.835061C53.7409 1.2178 54.3759 3.83606 55.4023 8.68985C55.8024 10.5687 56.1591 11.9431 56.4722 12.813C56.8028 13.6828 57.1594 14.1786 57.5421 14.3004H57.5682C57.864 14.3004 58.2902 13.2479 58.8469 11.1428C59.4036 9.0378 59.882 6.68919 60.2822 4.09702C60.5083 2.47909 60.6649 1.49615 60.7519 1.14821C60.8563 0.78287 61.0216 0.6002 61.2477 0.6002C61.3869 0.6002 61.5 0.608899 61.587 0.626297C61.7783 0.643694 61.9088 0.669789 61.9784 0.704583C62.0654 0.721981 62.1263 0.782871 62.1611 0.887253C62.2133 0.991635 62.2394 1.15691 62.2394 1.38307C62.2394 1.69622 62.2307 1.96587 62.2133 2.19204C62.1263 4.00133 61.7435 6.43693 61.065 9.49882C60.404 12.5607 59.8125 14.544 59.2905 15.4486C59.0122 15.9183 58.499 16.1532 57.7509 16.1532C57.3856 16.1532 57.0289 16.0749 56.681 15.9183C56.2635 15.727 55.9329 15.5095 55.6893 15.266C55.4632 15.005 55.2022 14.4831 54.9065 13.7002C54.6107 12.9173 54.3237 11.9605 54.0453 10.8297C53.767 9.68149 53.3842 7.97657 52.8971 5.71495C52.3926 3.41853 52.1403 1.97457 52.1403 1.38307Z" fill="#DB5475"/>
<path d="M65.2683 0.208766C65.3901 0.0695885 66.4252 0 68.3737 0C69.5393 0 70.4961 0.00869896 71.2442 0.0260969C75.1411 0.0956854 77.1592 0.147877 77.2984 0.18267C77.4724 0.234862 77.5593 0.42623 77.5593 0.756775C77.5593 0.791569 77.5506 0.835061 77.5332 0.887253C77.5332 0.939445 77.5332 0.974239 77.5332 0.991636C77.4984 1.33958 77.3767 1.54834 77.1679 1.61793C76.9591 1.68752 76.2633 1.75711 75.0802 1.8267L72.7055 1.95718V3.20977C72.7925 5.4192 72.9056 7.73301 73.0448 10.1512C73.2014 12.3432 73.2796 14.1004 73.2796 15.4225C73.2796 15.8749 73.2623 16.1532 73.2275 16.2576C73.1579 16.4838 72.9578 16.5968 72.6273 16.5968C72.5925 16.5968 72.549 16.5968 72.4968 16.5968C72.4446 16.5794 72.4098 16.5707 72.3924 16.5707C71.9575 16.5185 71.6791 16.2663 71.5573 15.814C71.4529 15.3442 71.3834 14.2743 71.3486 12.6042C71.3486 11.3168 71.2442 9.12478 71.0354 6.0281L70.7484 1.8267H68.6607C67.2515 1.8267 66.3556 1.74841 65.9729 1.59184C65.4162 1.36567 65.1378 1.02643 65.1378 0.574105C65.1378 0.452326 65.1813 0.330546 65.2683 0.208766Z" fill="#DB5475"/>
<path d="M81.9405 0.73068C82.2537 0.469722 82.5495 0.295751 82.8278 0.208766C83.1062 0.12178 83.4976 0.0782875 84.0021 0.0782875C84.9068 0.0956844 85.707 0.260957 86.4029 0.574105C87.0988 0.887253 87.4467 1.25259 87.4467 1.67012C87.4467 2.20943 87.1858 2.47909 86.6639 2.47909C86.3681 2.47909 86.055 2.3921 85.7244 2.21813C85.2547 1.95718 84.7067 1.8267 84.0804 1.8267C83.5411 1.8267 83.0888 2.02676 82.7234 2.4269C82.3755 2.82703 82.2015 3.28805 82.2015 3.80997C82.2015 4.34928 82.3842 4.8103 82.7495 5.19304C83.167 5.64536 84.0369 6.11508 85.3591 6.6022C86.9074 7.1937 87.9773 7.90698 88.5688 8.74204C89.1603 9.57711 89.4561 10.7949 89.4561 12.3954C89.4561 13.7524 89.0125 14.7962 88.1252 15.5269C87.238 16.2576 85.968 16.6229 84.3153 16.6229C83.254 16.6229 82.4886 16.5272 82.0188 16.3359C81.5491 16.1271 81.3143 15.8053 81.3143 15.3703C81.3143 15.2312 81.3143 15.1355 81.3143 15.0833C81.3316 15.0311 81.3664 14.9789 81.4186 14.9267C81.4708 14.8571 81.5491 14.8223 81.6535 14.8223C81.7753 14.8049 81.9492 14.7962 82.1754 14.7962C82.6451 14.7962 83.0714 14.8049 83.4541 14.8223C83.5585 14.8223 83.689 14.831 83.8455 14.8484C84.0195 14.8484 84.15 14.8484 84.237 14.8484C85.4896 14.8484 86.3768 14.6571 86.8987 14.2743C87.4206 13.8742 87.6816 13.2044 87.6816 12.265C87.6816 12.0214 87.6729 11.83 87.6555 11.6909C87.5685 10.7166 87.3163 10.012 86.8987 9.57711C86.4986 9.12478 85.6809 8.65506 84.4457 8.16794C82.9496 7.57644 81.9058 6.96754 81.3143 6.34124C80.7228 5.69755 80.427 4.86249 80.427 3.83606C80.427 2.65306 80.9315 1.61793 81.9405 0.73068Z" fill="#DB5475"/>
<path d="M92.4604 0.704583C92.6865 0.443627 93.2519 0.313148 94.1566 0.313148C94.8351 0.313148 95.2439 0.408832 95.3831 0.6002C95.4701 0.774172 95.5135 2.59217 95.5135 6.05419V8.01137C95.5135 8.56807 95.5049 9.25526 95.4874 10.0729C95.4874 10.8906 95.4874 11.4386 95.4874 11.7169C95.4874 13.2131 95.5135 14.2047 95.5657 14.6919C95.6179 15.179 95.7223 15.5095 95.8789 15.6835C96.0877 15.8923 96.192 16.0923 96.192 16.2837C96.192 16.5446 95.9833 16.7534 95.5657 16.91C95.1656 17.0492 94.6959 17.1187 94.1566 17.1187C93.8434 17.1187 93.5564 17.0927 93.2954 17.0405C92.9127 16.9361 92.7213 16.7012 92.7213 16.3359C92.7213 16.0749 92.8431 15.8401 93.0867 15.6313C93.2432 15.4921 93.3476 14.9876 93.3998 14.1177C93.452 13.2479 93.4781 11.4473 93.4781 8.71595C93.4781 5.54968 93.452 3.66209 93.3998 3.05319C93.365 2.4269 93.2258 2.07895 92.9823 2.00937C92.5126 1.87019 92.2777 1.60053 92.2777 1.2004C92.2777 1.00903 92.3386 0.84376 92.4604 0.704583Z" fill="#DB5475"/>
<path d="M104.53 0.913349C104.634 0.808965 105.6 0.756774 107.426 0.756774C109.914 0.756774 111.393 0.826362 111.863 0.965539C112.332 1.10472 112.567 1.35697 112.567 1.72231C112.567 1.89628 112.506 2.07026 112.385 2.24423C112.298 2.4008 112.037 2.51388 111.602 2.58347C111.167 2.63566 110.34 2.67915 109.123 2.71395L106.095 2.79223V8.76814H107.844C109.305 8.76814 110.036 9.003 110.036 9.47272C110.036 9.6119 109.984 9.78587 109.879 9.99464C109.758 10.2208 109.575 10.3687 109.331 10.4383C109.105 10.4905 108.618 10.5165 107.87 10.5165H106.122L106.043 13.3088C106.008 15.1703 105.852 16.188 105.574 16.362C105.417 16.4664 105.234 16.5185 105.026 16.5185C104.939 16.5185 104.843 16.5012 104.738 16.4664C104.565 16.3794 104.451 15.9097 104.399 15.0572C104.364 14.1873 104.347 12.0649 104.347 8.68985C104.347 3.5925 104.408 1.00033 104.53 0.913349Z" fill="#55AEB5"/>
<path d="M116.349 0.234861C116.732 0.078287 117.689 0 119.22 0C120.855 0 122.003 0.0869854 122.664 0.260956C123.029 0.347942 123.264 0.434928 123.369 0.521914C123.491 0.6089 123.551 0.739378 123.551 0.913349C123.551 1.01773 123.543 1.10472 123.525 1.1743L123.447 1.85279H117.184V7.38507L119.167 7.51555C120.507 7.60253 121.255 7.7852 121.412 8.06356C121.516 8.23753 121.568 8.3854 121.568 8.50718C121.568 9.0117 120.724 9.26396 119.037 9.26396H117.054V11.8474C117.054 13.5523 117.158 14.5092 117.367 14.7179C117.576 14.9267 118.48 15.0311 120.081 15.0311C122.534 15.0311 123.76 15.3703 123.76 16.0488C123.76 16.2402 123.647 16.449 123.421 16.6751C123.195 16.9187 122.742 17.0405 122.064 17.0405C121.646 17.0405 121.02 17.0144 120.185 16.9622C118.306 16.8752 117.149 16.7186 116.714 16.4925C116.053 16.2141 115.653 15.6661 115.514 14.8484C115.375 14.0308 115.305 11.8387 115.305 8.27232C115.305 3.88825 115.392 1.49615 115.566 1.09602C115.723 0.678487 115.984 0.391435 116.349 0.234861Z" fill="#55AEB5"/>
<path d="M128.111 0.887253C128.424 0.626296 128.72 0.452325 128.998 0.365339C129.277 0.278354 129.668 0.234861 130.173 0.234861C131.077 0.252258 131.878 0.41753 132.574 0.730678C133.269 1.04383 133.617 1.40917 133.617 1.8267C133.617 2.36601 133.356 2.63566 132.835 2.63566C132.539 2.63566 132.226 2.54868 131.895 2.37471C131.425 2.11375 130.877 1.98327 130.251 1.98327C129.712 1.98327 129.259 2.18334 128.894 2.58347C128.546 2.9836 128.372 3.44463 128.372 3.96654C128.372 4.50585 128.555 4.96687 128.92 5.34961C129.338 5.80193 130.208 6.27166 131.53 6.75878C133.078 7.35028 134.148 8.06356 134.74 8.89862C135.331 9.73368 135.627 10.9515 135.627 12.552C135.627 13.909 135.183 14.9528 134.296 15.6835C133.409 16.4142 132.139 16.7795 130.486 16.7795C129.425 16.7795 128.659 16.6838 128.19 16.4925C127.72 16.2837 127.485 15.9618 127.485 15.5269C127.485 15.3877 127.485 15.2921 127.485 15.2399C127.502 15.1877 127.537 15.1355 127.589 15.0833C127.641 15.0137 127.72 14.9789 127.824 14.9789C127.946 14.9615 128.12 14.9528 128.346 14.9528C128.816 14.9528 129.242 14.9615 129.625 14.9789C129.729 14.9789 129.86 14.9876 130.016 15.005C130.19 15.005 130.321 15.005 130.408 15.005C131.66 15.005 132.547 14.8136 133.069 14.4309C133.591 14.0308 133.852 13.361 133.852 12.4215C133.852 12.178 133.844 11.9866 133.826 11.8474C133.739 10.8732 133.487 10.1686 133.069 9.73368C132.669 9.28135 131.852 8.81163 130.616 8.32451C129.12 7.73301 128.076 7.12411 127.485 6.49782C126.893 5.85413 126.598 5.01906 126.598 3.99264C126.598 2.80963 127.102 1.77451 128.111 0.887253Z" fill="#55AEB5"/>
<path d="M138.605 0.365339C138.727 0.226162 139.762 0.156573 141.71 0.156573C142.876 0.156573 143.833 0.165272 144.581 0.18267C148.478 0.252259 150.496 0.30445 150.635 0.339244C150.809 0.391435 150.896 0.582804 150.896 0.913349C150.896 0.948142 150.887 0.991635 150.87 1.04383C150.87 1.09602 150.87 1.13081 150.87 1.14821C150.835 1.49615 150.713 1.70492 150.505 1.7745C150.296 1.84409 149.6 1.91368 148.417 1.98327L146.042 2.11375V3.36634C146.129 5.57577 146.242 7.88959 146.381 10.3078C146.538 12.4998 146.616 14.2569 146.616 15.5791C146.616 16.0314 146.599 16.3098 146.564 16.4142C146.495 16.6403 146.294 16.7534 145.964 16.7534C145.929 16.7534 145.886 16.7534 145.833 16.7534C145.781 16.736 145.746 16.7273 145.729 16.7273C145.294 16.6751 145.016 16.4229 144.894 15.9705C144.79 15.5008 144.72 14.4309 144.685 12.7608C144.685 11.4734 144.581 9.28135 144.372 6.18467L144.085 1.98327H141.997C140.588 1.98327 139.692 1.90498 139.31 1.74841C138.753 1.52225 138.474 1.183 138.474 0.730678C138.474 0.608899 138.518 0.487119 138.605 0.365339Z" fill="#55AEB5"/>
<path d="M153.972 0.861156C154.199 0.6002 154.764 0.469722 155.669 0.469722C156.347 0.469722 156.756 0.565406 156.895 0.756774C156.982 0.930745 157.026 2.74874 157.026 6.21077V8.16794C157.026 8.72465 157.017 9.41183 157 10.2295C157 11.0472 157 11.5952 157 11.8735C157 13.3697 157.026 14.3613 157.078 14.8484C157.13 15.3355 157.234 15.6661 157.391 15.8401C157.6 16.0488 157.704 16.2489 157.704 16.4403C157.704 16.7012 157.495 16.91 157.078 17.0666C156.678 17.2057 156.208 17.2753 155.669 17.2753C155.355 17.2753 155.068 17.2492 154.807 17.197C154.425 17.0927 154.233 16.8578 154.233 16.4925C154.233 16.2315 154.355 15.9966 154.599 15.7879C154.755 15.6487 154.86 15.1442 154.912 14.2743C154.964 13.4045 154.99 11.6039 154.99 8.87252C154.99 5.70625 154.964 3.81866 154.912 3.20977C154.877 2.58347 154.738 2.23553 154.494 2.16594C154.025 2.02676 153.79 1.75711 153.79 1.35697C153.79 1.16561 153.851 1.00033 153.972 0.861156Z" fill="#55AEB5"/>
<path d="M160.543 1.53964C160.543 1.2265 160.595 1.01773 160.7 0.913349C160.804 0.808965 160.987 0.756774 161.248 0.756774C161.578 0.756774 161.796 0.835061 161.9 0.991634C162.144 1.37437 162.779 3.99264 163.805 8.84643C164.205 10.7253 164.562 12.0997 164.875 12.9695C165.205 13.8394 165.562 14.3352 165.945 14.457H165.971C166.267 14.457 166.693 13.4045 167.25 11.2994C167.806 9.19437 168.285 6.84576 168.685 4.25359C168.911 2.63566 169.068 1.65272 169.155 1.30478C169.259 0.939443 169.424 0.756774 169.65 0.756774C169.79 0.756774 169.903 0.765472 169.99 0.78287C170.181 0.800267 170.311 0.826363 170.381 0.861156C170.468 0.878554 170.529 0.939444 170.564 1.04383C170.616 1.14821 170.642 1.31348 170.642 1.53964C170.642 1.85279 170.633 2.12245 170.616 2.34861C170.529 4.15791 170.146 6.5935 169.468 9.65539C168.807 12.7173 168.215 14.7006 167.693 15.6052C167.415 16.0749 166.902 16.3098 166.154 16.3098C165.788 16.3098 165.432 16.2315 165.084 16.0749C164.666 15.8836 164.336 15.6661 164.092 15.4225C163.866 15.1616 163.605 14.6397 163.309 13.8568C163.013 13.0739 162.726 12.1171 162.448 10.9863C162.17 9.83806 161.787 8.13315 161.3 5.87152C160.795 3.5751 160.543 2.13115 160.543 1.53964Z" fill="#55AEB5"/>
<path d="M180.847 4.35797C180.378 3.001 179.96 2.32251 179.595 2.32251C179.351 2.32251 179.012 2.59217 178.577 3.13148C178.212 3.5838 177.794 4.34928 177.324 5.4279C176.872 6.48912 176.646 7.2198 176.646 7.61993C176.646 7.70692 176.655 7.75911 176.672 7.77651C176.759 7.93308 177.594 8.01137 179.177 8.01137H181.552L181.526 7.17631C181.526 6.75878 181.3 5.81933 180.847 4.35797ZM178.394 0.965539C178.951 0.617597 179.473 0.443627 179.96 0.443627C180.743 0.443627 181.343 0.861157 181.761 1.69622C182.004 2.20073 182.309 3.07929 182.674 4.33188C183.057 5.56707 183.309 6.55871 183.431 7.30678C183.518 7.93308 183.683 8.24623 183.927 8.24623C184.083 8.24623 184.205 8.32451 184.292 8.48109C184.396 8.63766 184.448 8.82033 184.448 9.0291C184.448 9.29005 184.37 9.51622 184.214 9.70758C184.057 9.89895 183.979 10.1512 183.979 10.4644C183.979 10.7601 184.014 11.1081 184.083 11.5082C184.118 11.6996 184.24 12.7173 184.448 14.5614C184.501 15.0833 184.527 15.466 184.527 15.7096C184.527 16.0749 184.396 16.3446 184.135 16.5185C183.961 16.6055 183.813 16.649 183.692 16.649C183.187 16.649 182.857 16.0662 182.7 14.9006C182.335 11.7865 182.004 10.1425 181.708 9.96854C181.534 9.86416 180.717 9.81197 179.255 9.81197H178.681L175.941 9.89025L175.602 11.4038C175.376 12.3432 175.193 13.5523 175.054 15.0311L174.897 17.1709H173.384L173.41 14.9006C173.445 13.3871 173.584 12.091 173.828 11.0124C173.984 10.3339 174.062 9.81197 174.062 9.44663C174.062 9.22046 174.036 9.05519 173.984 8.95081C173.915 8.81163 173.88 8.70725 173.88 8.63766C173.88 8.46369 173.984 8.27232 174.193 8.06356C174.436 7.82 174.741 7.2111 175.106 6.23686C175.385 5.4192 175.733 4.56674 176.15 3.67949C176.585 2.79224 176.942 2.19204 177.22 1.87889C177.411 1.65273 177.803 1.34828 178.394 0.965539Z" fill="#55AEB5"/>
<path d="M187.196 0.652392C187.266 0.530612 187.449 0.469722 187.744 0.469722C188.231 0.469722 188.553 0.574105 188.71 0.78287C188.849 1.00903 188.962 3.37504 189.049 7.88089L189.153 14.6658L191.685 14.7701C193.337 14.8571 194.277 14.9702 194.503 15.1094C194.694 15.2486 194.79 15.4921 194.79 15.8401C194.79 16.275 194.668 16.5446 194.425 16.649C194.338 16.6838 194.016 16.7012 193.459 16.7012C192.45 16.7012 191.241 16.649 189.832 16.5446C188.44 16.4403 187.709 16.3359 187.64 16.2315C187.553 16.1097 187.509 15.3008 187.509 13.8046V13.2044C187.509 10.9254 187.44 8.3941 187.301 5.61057C187.214 3.6099 187.17 2.19204 187.17 1.35697C187.17 0.922046 187.179 0.687186 187.196 0.652392Z" fill="#55AEB5"/>
<path d="M199.186 0.887253C199.499 0.626296 199.795 0.452325 200.073 0.365339C200.352 0.278354 200.743 0.234861 201.248 0.234861C202.152 0.252258 202.953 0.41753 203.649 0.730678C204.344 1.04383 204.692 1.40917 204.692 1.8267C204.692 2.36601 204.431 2.63566 203.91 2.63566C203.614 2.63566 203.301 2.54868 202.97 2.37471C202.5 2.11375 201.952 1.98327 201.326 1.98327C200.787 1.98327 200.334 2.18334 199.969 2.58347C199.621 2.9836 199.447 3.44463 199.447 3.96654C199.447 4.50585 199.63 4.96687 199.995 5.34961C200.413 5.80193 201.283 6.27166 202.605 6.75878C204.153 7.35028 205.223 8.06356 205.814 8.89862C206.406 9.73368 206.702 10.9515 206.702 12.552C206.702 13.909 206.258 14.9528 205.371 15.6835C204.484 16.4142 203.214 16.7795 201.561 16.7795C200.5 16.7795 199.734 16.6838 199.264 16.4925C198.795 16.2837 198.56 15.9618 198.56 15.5269C198.56 15.3877 198.56 15.2921 198.56 15.2399C198.577 15.1877 198.612 15.1355 198.664 15.0833C198.716 15.0137 198.795 14.9789 198.899 14.9789C199.021 14.9615 199.195 14.9528 199.421 14.9528C199.891 14.9528 200.317 14.9615 200.7 14.9789C200.804 14.9789 200.935 14.9876 201.091 15.005C201.265 15.005 201.396 15.005 201.483 15.005C202.735 15.005 203.622 14.8136 204.144 14.4309C204.666 14.0308 204.927 13.361 204.927 12.4215C204.927 12.178 204.919 11.9866 204.901 11.8474C204.814 10.8732 204.562 10.1686 204.144 9.73368C203.744 9.28135 202.927 8.81163 201.691 8.32451C200.195 7.73301 199.151 7.12411 198.56 6.49782C197.968 5.85413 197.673 5.01906 197.673 3.99264C197.673 2.80963 198.177 1.77451 199.186 0.887253Z" fill="#55AEB5"/>
</svg>
