<svg width="34" height="34" viewBox="0 0 34 34" fill="none" xmlns="http://www.w3.org/2000/svg">
<rect width="34" height="34" rx="17" fill="#DB5475"/>
<path d="M26.6848 25.5173L21.7561 20.5887C23.0993 18.946 23.7596 16.8499 23.6006 14.734C23.4417 12.6181 22.4755 10.6443 20.902 9.22072C19.3285 7.79719 17.2681 7.03289 15.1469 7.08593C13.0256 7.13897 11.006 8.00528 9.50557 9.50567C8.00518 11.0061 7.13888 13.0257 7.08584 15.1469C7.0328 17.2682 7.79709 19.3286 9.22063 20.9021C10.6442 22.4756 12.618 23.4418 14.7339 23.6007C16.8498 23.7597 18.9459 23.0993 20.5886 21.7562L25.5172 26.6849C25.673 26.8353 25.8816 26.9185 26.0981 26.9166C26.3146 26.9148 26.5217 26.8279 26.6747 26.6748C26.8278 26.5217 26.9147 26.3146 26.9166 26.0981C26.9184 25.8816 26.8352 25.6731 26.6848 25.5173ZM15.3668 21.9726C14.0603 21.9726 12.7832 21.5851 11.6969 20.8593C10.6106 20.1335 9.7639 19.1018 9.26393 17.8948C8.76396 16.6877 8.63315 15.3596 8.88803 14.0782C9.14291 12.7968 9.77204 11.6198 10.6959 10.696C11.6197 9.77213 12.7967 9.143 14.0781 8.88812C15.3595 8.63324 16.6876 8.76405 17.8947 9.26402C19.1017 9.76399 20.1334 10.6107 20.8592 11.697C21.5851 12.7833 21.9725 14.0604 21.9725 15.3669C21.9705 17.1182 21.2739 18.7972 20.0355 20.0356C18.7972 21.274 17.1181 21.9706 15.3668 21.9726Z" fill="#FFFFFE"/>
</svg>
