<svg width="20" height="20" viewBox="0 0 20 20" fill="none" xmlns="http://www.w3.org/2000/svg">
<path d="M19.6848 18.5173L14.7561 13.5887C16.0993 11.946 16.7596 9.84991 16.6006 7.73401C16.4417 5.6181 15.4755 3.64424 13.902 2.2207C12.3285 0.797171 10.2681 0.032878 8.14685 0.0859149C6.02564 0.138952 4.00596 1.00526 2.50557 2.50565C1.00518 4.00604 0.138875 6.02572 0.0858386 8.14693C0.0328017 10.2681 0.797094 12.3286 2.22063 13.9021C3.64416 15.4756 5.61802 16.4417 7.73393 16.6007C9.84984 16.7597 11.9459 16.0993 13.5886 14.7562L18.5172 19.6849C18.673 19.8353 18.8816 19.9185 19.0981 19.9166C19.3146 19.9148 19.5217 19.8279 19.6747 19.6748C19.8278 19.5217 19.9147 19.3146 19.9166 19.0981C19.9184 18.8816 19.8352 18.6731 19.6848 18.5173ZM8.36679 14.9725C7.06031 14.9725 5.78316 14.5851 4.69687 13.8593C3.61057 13.1334 2.7639 12.1018 2.26393 10.8947C1.76396 9.68772 1.63315 8.35954 1.88803 7.07816C2.14291 5.79678 2.77204 4.61976 3.69586 3.69594C4.61968 2.77212 5.7967 2.14299 7.07808 1.88811C8.35946 1.63322 9.68764 1.76404 10.8947 2.26401C12.1017 2.76398 13.1334 3.61064 13.8592 4.69694C14.5851 5.78324 14.9725 7.06038 14.9725 8.36686C14.9705 10.1182 14.2739 11.7972 13.0355 13.0356C11.7972 14.274 10.1181 14.9706 8.36679 14.9725Z" fill="#FFFFFE"/>
</svg>
